# xmcd
#
# Track frame offsets: 
#        150
#        10927
#        21422
#        28957
#        41717
#        56852
#        70147
#        80632
#        91597
#        104922
#        119492
#        131182
#        142625
#        154152
#        166307
#        175420
#        187270
#        196452
#        207225
#        218887
#        232585
#        243592
#
# Disc length: 3396 seconds
#
# Revision: 0
# Processed by: cddbd v1.4PL0 Copyright (c) Steve Scherf et al.
# Submitted via: ExactAudioCopy v0.90b3
#
DISCID=460d4216
DTITLE=Various Artist - Stompin' 3
DYEAR=1900
DGENRE=
TTITLE0=Don't Stay Out All Night
TTITLE1=Don't Mess Around
TTITLE2=St. Louis Sunset Twist
TTITLE3=Shake It Baby
TTITLE4=Wind It Up
TTITLE5=A Thing You Gotta Face
TTITLE6=Take A Trip
TTITLE7=I Weep
TTITLE8=I'm Gabriel
TTITLE9=Funky Horns
TTITLE10=If I Didn't Love You
TTITLE11=Mr. Hot Shot
TTITLE12=Farewell Annabelle
TTITLE13=Anna Mae
TTITLE14=Topless
TTITLE15=A Pretty Girl Dressed In Brown
TTITLE16=You'd Better Find Yourself Another Fool
TTITLE17=Wattcha Gonna Do
TTITLE18=Come On Home
TTITLE19=Shake, Shout And Soul
TTITLE20=Soul And Stomp
TTITLE21=I'm Gonna Try
EXTD=
EXTT0=
EXTT1=
EXTT2=
EXTT3=
EXTT4=
EXTT5=
EXTT6=
EXTT7=
EXTT8=
EXTT9=
EXTT10=
EXTT11=
EXTT12=
EXTT13=
EXTT14=
EXTT15=
EXTT16=
EXTT17=
EXTT18=
EXTT19=
EXTT20=
EXTT21=
PLAYORDER=
